<?xml version="1.0" encoding="UTF-8"?>
<svg data-bbox="20 20 160 160" xmlns="http://www.w3.org/2000/svg" width="200" height="200" viewBox="0 0 200 200" data-type="color">
    <g>
        <path fill="#3B5C53" d="M126.936 127.782c-11.442-1.765-20.259-11.594-20.259-23.524 0-5.577 4.107-15.039 8.712-23.918L93.202 61.725 59.458 90.033v44.758h67.478v-7.009z" data-color="1"/>
        <path fill="#3B5C53" d="M31.606 141.344C45.626 164.484 70.969 180 100 180c29.032 0 54.375-15.517 68.394-38.657H31.606z" data-color="1"/>
        <path fill="#3B5C53" d="M52.906 88.503c0-.969.429-1.888 1.171-2.512l37.019-31.055c.102-.085.227-.112.335-.182.18-.118.356-.221.551-.3.206-.084.41-.139.626-.179.191-.035.374-.059.567-.06.232-.002.45.025.675.072.185.038.358.084.535.154.217.085.412.197.609.33.101.066.218.09.312.169l23.244 19.503a312.185 312.185 0 0 1 9.257-15.571c1.203-1.881 4.313-1.881 5.516 0 2.163 3.382 21.136 33.39 21.136 45.385 0 12.171-9.184 22.134-20.97 23.595v6.938h38.465C177.057 124.26 180 112.487 180 100c0-44.183-35.817-80-80-80-44.182 0-80 35.818-80 80 0 12.487 2.943 24.26 8.045 34.791h24.86V88.503z" data-color="1"/>
        <path fill="#3B5C53" d="M130.565 121.596c9.56 0 17.341-7.778 17.341-17.338 0-7.372-10.782-26.643-17.341-37.419-6.553 10.776-17.335 30.05-17.335 37.419 0 9.56 7.775 17.338 17.335 17.338z" data-color="1"/>
    </g>
</svg>
